<svg id="Layer_1" data-name="Layer 1" xmlns="http://www.w3.org/2000/svg" viewBox="0 0 441.28 357.94"><defs><style>.cls-1{fill:#808181;}.cls-2{fill:#3e2683;}</style></defs><title>KION-logo</title><path class="cls-1" d="M187.38,249.92c0-56.25,37.07-93.06,88.21-93.06s88.21,36.82,88.21,93.06S326.72,343,275.59,343,187.38,306.17,187.38,249.92Z" transform="translate(-29.41 -70.95)"/><rect class="cls-2" width="32.73" height="178.97"/><polygon class="cls-2" points="101.5 178.97 39.12 84.37 101.5 0 138.32 0 75.93 84.37 138.32 178.97 101.5 178.97"/><rect class="cls-2" x="158.77" width="32.73" height="178.97"/><polygon class="cls-2" points="414.44 357.94 332.63 235.22 332.63 357.94 299.9 357.94 299.9 178.97 332.11 178.97 408.56 294.53 408.56 178.97 441.29 178.97 441.29 357.94 414.44 357.94"/></svg>